<svg id="Ebene_1" xmlns="http://www.w3.org/2000/svg" viewBox="0 0 932.93399765624963 936.35498046875"><defs><style>
      .cls-1 {
        fill: #f78c58;
      }
    </style></defs><path class="cls-1" d="M290.11279296875,573.33837890625c-13.52294921875,12.59869384765625-32.2156982421875,18.90234375-56.107421875,18.90234375-23.4586181640625,0-41.72760009765625-6.08905029296875-54.82421875-18.23492431640625v113.89031982421875c16.60009765625,3.8414306640625,34.2257080078125,5.7811279296875,52.8984375,5.7811279296875,20.44378662109375,0,39.7845458984375-2.3531494140625,58.033203125-7.031982421875v-113.306884765625Z"></path><rect class="cls-1" x="179.18115234375" y="419.3857421875" width="110.931640625" height="88.595703125"></rect><g><path class="cls-1" d="M49.97186279296875,621.6943359375c-1.4183349609375-2.443115234375-2.7630615234375-4.9423828125-4.0728759765625-7.468017578125v79.450927734375h80.04034423828125c-31.937744140625-15.925048828125-57.49981689453125-40.140625-75.96746826171875-71.98291015625Z"></path><path class="cls-1" d="M417.729736328130457,621.8902587890625c-19.40771484375,31.54022216796875-45.88916015625,55.66778564453125-78.708374023441138,71.71240234375-.052490234378638.025634765625-.106079101558862.0489501953125-.158569335939319.0745849609375h84.5322265625v-81.72430419921875c-1.789184570310681,3.38470458984375-3.673828125,6.7003173828125-5.665283203119543,9.93731689453125Z"></path></g><g><path class="cls-1" d="M313.61279296875,508.13916015625v170.9488525390625c5.123046875-1.9989013671875,10.1572265625-4.1871337890625,15.0869140625-6.5972900390625,28.890625-14.1240234375,51.892578125-35.0888671875,69.015625-62.916015625,17.112548828130457-27.81536865234375,25.678955078130457-61.84027099609375,25.6796875-102.0736083984375V242.67724609375h-109.7822265625v265.4619140625Z"></path><path class="cls-1" d="M70.29541015625,609.89599609375c16.2607421875,28.037109375,38.4091796875,49.0126953125,66.447265625,62.916015625,6.1297607421875,3.0428466796875,12.44989013671875,5.73236083984375,18.9384765625,8.10943603515625V242.67724609375H45.89898681640625v264.8240966796875c.0006103515625,40.2332763671875,8.1265869140625,74.368408203125,24.39642333984375,102.3946533203125Z"></path></g><g><path d="M629.37247421874963,366.67041015625h-95.5888671875c.65625,8.564453125,3.4150390625,15.109375,8.2744140625,19.63671875,4.8544921875,4.53125,10.8251953125,6.7919921875,17.9072265625,6.7919921875,10.5361328125,0,17.865234375-4.4453125,21.9833984375-13.337890625h44.9541015625c-2.30859375,9.05859375-6.46484375,17.208984375-12.4736328125,24.453125-6.0126953125,7.248046875-13.546875,12.9287109375-22.6005859375,17.04296875-9.05859375,4.1181640625-19.185546875,6.1748046875-30.380859375,6.1748046875-13.50390625,0-25.5263671875-2.87890625-36.0625-8.64453125-10.5400390625-5.76171875-18.771484375-13.994140625-24.7001953125-24.7001953125-5.927734375-10.7021484375-8.8916015625-23.2177734375-8.8916015625-37.5439453125,0-14.3251953125,2.921875-26.837890625,8.7685546875-37.5439453125,5.8427734375-10.7021484375,14.0361328125-18.93359375,24.576171875-24.7001953125,10.5361328125-5.76171875,22.6396484375-8.64453125,36.3095703125-8.64453125,13.337890625,0,25.193359375,2.8017578125,35.5673828125,8.3984375,10.3740234375,5.599609375,18.482421875,13.5849609375,24.330078125,23.958984375,5.8427734375,10.3740234375,8.7685546875,22.4765625,8.7685546875,36.30859375,0,3.9521484375-.2470703125,8.0693359375-.7412109375,12.349609375ZM586.88809921874963,343.20556640625c0-7.244140625-2.4697265625-13.005859375-7.41015625-17.2900390625-4.939453125-4.2802734375-11.1142578125-6.421875-18.5244140625-6.421875-7.08203125,0-13.052734375,2.0615234375-17.9072265625,6.1748046875-4.859375,4.1181640625-7.8662109375,9.96484375-9.015625,17.537109375h52.857421875Z"></path><path d="M694.57950546874963,242.67724609375v182.779296875h-42.236328125v-182.779296875h42.236328125Z"></path><path d="M767.44376328124963,242.67724609375v182.779296875h-42.236328125v-182.779296875h42.236328125Z"></path><path d="M824.37735703124963,418.78759765625c-10.7861328125-5.76171875-19.265625-13.994140625-25.4404296875-24.7001953125-6.1748046875-10.7021484375-9.2626953125-23.2177734375-9.2626953125-37.5439453125,0-14.16015625,3.1259765625-26.6328125,9.3857421875-37.419921875,6.255859375-10.783203125,14.8203125-19.0576171875,25.6884765625-24.82421875,10.8681640625-5.76171875,23.0517578125-8.64453125,36.5556640625-8.64453125,13.5,0,25.6884765625,2.8828125,36.5556640625,8.64453125,10.8681640625,5.7666015625,19.4287109375,14.041015625,25.6884765625,24.82421875,6.255859375,10.787109375,9.3857421875,23.259765625,9.3857421875,37.419921875,0,14.1640625-3.171875,26.6376953125-9.509765625,37.4208984375-6.3408203125,10.787109375-14.9853515625,19.0615234375-25.9345703125,24.8232421875-10.953125,5.765625-23.1796875,8.64453125-36.6796875,8.64453125-13.50390625,0-25.6494140625-2.87890625-36.4326171875-8.64453125ZM881.43497421874963,381.98486328125c5.6806640625-5.9287109375,8.521484375-14.4072265625,8.521484375-25.44140625,0-11.029296875-2.759765625-19.5126953125-8.2744140625-25.4404296875-5.51953125-5.9287109375-12.3115234375-8.892578125-20.3779296875-8.892578125-8.2353515625,0-15.0673828125,2.92578125-20.5009765625,8.7685546875-5.43359375,5.84765625-8.1513671875,14.369140625-8.1513671875,25.564453125,0,11.0341796875,2.6748046875,19.5126953125,8.0283203125,25.44140625,5.3486328125,5.927734375,12.060546875,8.8916015625,20.1298828125,8.8916015625,8.06640625,0,14.943359375-2.9638671875,20.625-8.8916015625Z"></path></g><g><path d="M614.42813828124963,570.05419921875c9.6328125,10.458984375,14.4501953125,24.8232421875,14.4501953125,43.1015625v80.521484375h-41.990234375v-74.8408203125c0-9.2197265625-2.388671875-16.3828125-7.1630859375-21.4892578125-4.7783203125-5.1015625-11.2001953125-7.65625-19.265625-7.65625-8.0703125,0-14.4921875,2.5546875-19.2666015625,7.65625-4.77734375,5.1064453125-7.1630859375,12.26953125-7.1630859375,21.4892578125v74.8408203125h-42.236328125v-137.826171875h42.236328125v18.2783203125c4.2802734375-6.08984375,10.0419921875-10.90625,17.2900390625-14.44921875,7.244140625-3.5390625,15.3955078125-5.310546875,24.453125-5.310546875,16.1357421875,0,29.0224609375,5.2294921875,38.6552734375,15.6845703125Z"></path><path d="M661.35684921874963,534.97998046875c-4.6923828125-4.361328125-7.0390625-9.7568359375-7.0390625-16.1787109375,0-6.583984375,2.3466796875-12.060546875,7.0390625-16.4248046875,4.693359375-4.361328125,10.7451171875-6.5458984375,18.154296875-6.5458984375,7.244140625,0,13.21484375,2.1845703125,17.908203125,6.5458984375,4.6923828125,4.3642578125,7.0390625,9.8408203125,7.0390625,16.4248046875,0,6.421875-2.3466796875,11.8173828125-7.0390625,16.1787109375-4.693359375,4.365234375-10.6640625,6.5458984375-17.908203125,6.5458984375-7.4091796875,0-13.4609375-2.1806640625-18.154296875-6.5458984375ZM700.50626328124963,555.85107421875v137.826171875h-42.236328125v-137.826171875h42.236328125Z"></path></g></svg>